<?xml version="1.0" encoding="utf-8"?>
<!-- Generator: Adobe Illustrator 25.4.0, SVG Export Plug-In . SVG Version: 6.00 Build 0)  -->
<svg version="1.1" xmlns="http://www.w3.org/2000/svg" xmlns:xlink="http://www.w3.org/1999/xlink" x="0px" y="0px"
	 viewBox="0 0 3282.15 929.51" style="enable-background:new 0 0 3282.15 929.51;" xml:space="preserve">
<style type="text/css">
	.st0{fill:#FFFFFF;}
	.st1{fill-rule:evenodd;clip-rule:evenodd;fill:#FFFFFF;}
	.st2{fill-rule:evenodd;clip-rule:evenodd;}
	.st3{fill:url(#SVGID_1_);}
	.st4{fill:url(#SVGID_00000153676433376332294750000004914638982219256714_);}
	.st5{fill:url(#SVGID_00000147193192964789686240000012605185473436563386_);}
	.st6{fill:url(#SVGID_00000153666495292592352090000005801040488088903853_);}
	.st7{fill:url(#SVGID_00000053517924630353697380000010224418830237974441_);}
	.st8{fill:url(#SVGID_00000136382715972137760130000004938210756762906268_);}
	.st9{fill-rule:evenodd;clip-rule:evenodd;fill:url(#SVGID_00000004544286340609461280000009760178095226935209_);}
	.st10{fill-rule:evenodd;clip-rule:evenodd;fill:url(#SVGID_00000077326404997142394210000011718184569406548886_);}
	.st11{fill-rule:evenodd;clip-rule:evenodd;fill:url(#SVGID_00000007391595833482659790000016443110267161175175_);}
	.st12{fill-rule:evenodd;clip-rule:evenodd;fill:url(#SVGID_00000097487132561854623070000006007536728072339883_);}
	.st13{fill-rule:evenodd;clip-rule:evenodd;fill:url(#SVGID_00000154388172392665420590000007275085699744293004_);}
	.st14{fill-rule:evenodd;clip-rule:evenodd;fill:url(#SVGID_00000015319253009289506020000004860850894116682157_);}
	.st15{fill-rule:evenodd;clip-rule:evenodd;fill:url(#SVGID_00000029047603981413813750000000757839188794217133_);}
	.st16{fill-rule:evenodd;clip-rule:evenodd;fill:url(#SVGID_00000116211841915878293280000002876157092927369871_);}
	.st17{fill-rule:evenodd;clip-rule:evenodd;fill:url(#SVGID_00000042701983230679012820000001935656242966825879_);}
	.st18{fill-rule:evenodd;clip-rule:evenodd;fill:url(#SVGID_00000015350596723256191090000014129027366651642266_);}
</style>
<g id="Layer_1">
</g>
<g id="Layer_2">
	<g>
		<g>
			<path d="M878.47,465.23c0-100.99,74.55-174.09,178.42-174.09c49.54,0,95.23,17.79,130.33,53.38l-39.92,38.96
				c-24.53-24.53-54.34-36.55-88.97-36.55c-66.85,0-114.94,45.69-114.94,118.31c0,72.14,47.13,117.35,117.83,117.35
				c32.7,0,57.23-10.1,76.47-25.01v-97.63h55.79V584.5c-35.11,34.63-83.68,53.86-135.14,53.86
				C953.98,638.37,878.47,565.27,878.47,465.23z"/>
			<path d="M1357.02,578.25h207.28v54.83h-268.36V296.43h263.55v54.83h-202.47v80.8h181.31v54.83h-181.31V578.25z"/>
			<path d="M1935.1,351.25h-200.06v98.11h176.5v54.34h-176.5v129.37h-62.04V296.43h262.11V351.25z"/>
			<path d="M2326.59,296.43l-133.22,213.53v123.12h-62.52V508.52l-133.22-212.09h68.29l96.67,160.15l95.7-160.15H2326.59z"/>
			<path d="M2629.58,633.08l-94.74-112.54h-52.9v112.54h-62.04V296.43h138.99c90.41,0,144.28,40.88,144.28,112.54
				c0,56.75-34.15,93.78-93.78,106.77l98.59,117.35H2629.58z M2481.94,351.25V466.2h75.03c53.39,0,84.16-14.43,84.16-56.27
				c0-40.88-30.78-58.67-83.68-58.67H2481.94z"/>
			<path d="M3076.38,633.08l-26.93-62.04h-178.9l-26.93,62.04h-65.41l151.01-336.65h62.04l151.49,336.65H3076.38z M2894.1,516.69
				h131.77l-65.89-152.45L2894.1,516.69z"/>
		</g>
		<g>
			<path class="st2" d="M276.32,222.44l69.53,135.98l52.41-20.52L312.89,204.2C300.21,209.41,288,215.51,276.32,222.44z"/>
			<path class="st2" d="M486.38,374.61l30.35,38.33l6.49-4.16l136.43-91.67c-7.39-11.98-15.66-23.37-24.72-34.07l-111.72,57.4
				l-54.21,27.86L146.8,533.86c8.25,32.71,22.23,63.13,40.8,90.16l175.84-112.77l-19.93-47.74l42.54-26.47L409.04,482l57.63-36.96
				l-26.58-41.63l28.92-18L486.38,374.61z"/>
			<path class="st2" d="M306.14,373.98l-55.93-134c-61.64,46.59-103.5,117.96-110.8,199.28L306.14,373.98z"/>
			<path class="st2" d="M443.34,320.25l25.67-10.05l54.21-21.23l85.19-33.36c-49.92-45.04-116.04-72.46-188.56-72.46
				c-26.58,0-52.3,3.69-76.68,10.57L443.34,320.25z"/>
			<path class="st2" d="M405.36,611.7l48.68-41.69l14.96,29.27l54.21,106.02l9.05,17.69c29.22-12.74,55.85-30.28,78.9-51.64
				l-87.95-137.74l-9.43-14.77l9.43-8.08l42.29-36.22l100.53,126.97c22.54-40.5,35.4-87.12,35.4-136.76
				c0-40.6-8.61-79.18-24.07-114.05L523.22,467.88l-54.21,41L240.39,681.77c48.73,40.34,111.26,64.58,179.46,64.58
				c15.39,0,30.47-1.25,45.19-3.63L405.36,611.7z"/>
		</g>
	</g>
</g>
</svg>
