<?xml version="1.0" encoding="utf-8"?>
<!-- Generator: Adobe Illustrator 25.4.0, SVG Export Plug-In . SVG Version: 6.00 Build 0)  -->
<svg version="1.1" xmlns="http://www.w3.org/2000/svg" xmlns:xlink="http://www.w3.org/1999/xlink" x="0px" y="0px"
	 viewBox="0 0 1568.66 1571.9" style="enable-background:new 0 0 1568.66 1571.9;" xml:space="preserve">
<style type="text/css">
	.st0{fill:#FFFFFF;}
	.st1{fill-rule:evenodd;clip-rule:evenodd;fill:#FFFFFF;}
	.st2{fill-rule:evenodd;clip-rule:evenodd;}
	.st3{fill:url(#SVGID_1_);}
	.st4{fill:url(#SVGID_00000000912617789242130560000004051247304489031564_);}
	.st5{fill:url(#SVGID_00000089567957500946363570000008674102885205486265_);}
	.st6{fill:url(#SVGID_00000082345034831534109410000009475470770969956255_);}
	.st7{fill:url(#SVGID_00000129163861411233226970000009306180170493972361_);}
	.st8{fill:url(#SVGID_00000116237872290260039950000007285709752047351940_);}
	.st9{fill-rule:evenodd;clip-rule:evenodd;fill:url(#SVGID_00000049928527251616691310000017516869370500790701_);}
	.st10{fill-rule:evenodd;clip-rule:evenodd;fill:url(#SVGID_00000113322031698186226400000017801370290513786005_);}
	.st11{fill-rule:evenodd;clip-rule:evenodd;fill:url(#SVGID_00000068659096457759089740000009623193400036061831_);}
	.st12{fill-rule:evenodd;clip-rule:evenodd;fill:url(#SVGID_00000027605251745157929560000016261232185669029550_);}
	.st13{fill-rule:evenodd;clip-rule:evenodd;fill:url(#SVGID_00000032618016609216656660000010071114563634686867_);}
	.st14{fill-rule:evenodd;clip-rule:evenodd;fill:url(#SVGID_00000057121298844484509510000001861915630068623534_);}
	.st15{fill-rule:evenodd;clip-rule:evenodd;fill:url(#SVGID_00000167376064154472896300000013340169829159946142_);}
	.st16{fill-rule:evenodd;clip-rule:evenodd;fill:url(#SVGID_00000063613381157702439100000013886984515243173821_);}
	.st17{fill-rule:evenodd;clip-rule:evenodd;fill:url(#SVGID_00000085945695237216181560000009812805047381397400_);}
	.st18{fill-rule:evenodd;clip-rule:evenodd;fill:url(#SVGID_00000010292897210751128020000005192560039911054227_);}
</style>
<g id="Layer_1">
</g>
<g id="Layer_2">
	<g>
		<linearGradient id="SVGID_1_" gradientUnits="userSpaceOnUse" x1="-418.8038" y1="519.5532" x2="5367.6514" y2="-406.2797">
			<stop  offset="0" style="stop-color:#0000C9"/>
			<stop  offset="1" style="stop-color:#003DFF"/>
		</linearGradient>
		<path style="fill-rule:evenodd;clip-rule:evenodd;fill:url(#SVGID_1_);" d="M450.37,224.39l161.14,315.14l121.46-47.56
			L535.12,182.1C505.73,194.18,477.42,208.33,450.37,224.39z"/>
		
			<linearGradient id="SVGID_00000031902061564310955740000008391928176779587971_" gradientUnits="userSpaceOnUse" x1="-351.8043" y1="938.3001" x2="5434.6509" y2="12.4672">
			<stop  offset="0" style="stop-color:#0000C9"/>
			<stop  offset="1" style="stop-color:#003DFF"/>
		</linearGradient>
		<path style="fill-rule:evenodd;clip-rule:evenodd;fill:url(#SVGID_00000031902061564310955740000008391928176779587971_);" d="
			M937.18,577.03l70.34,88.84l15.04-9.65l316.19-212.45c-17.14-27.77-36.3-54.16-57.28-78.97l-258.91,133.04l-125.64,64.56
			L150.19,946.09c19.12,75.8,51.51,146.31,94.55,208.94l407.51-261.34l-46.18-110.64l98.59-61.35l53.28,104.2l133.55-85.65
			l-61.6-96.48l67.03-41.71L937.18,577.03z"/>
		
			<linearGradient id="SVGID_00000183938061616257037970000009417770666375601036_" gradientUnits="userSpaceOnUse" x1="-405.5059" y1="602.665" x2="5380.9492" y2="-323.1678">
			<stop  offset="0" style="stop-color:#0000C9"/>
			<stop  offset="1" style="stop-color:#003DFF"/>
		</linearGradient>
		<path style="fill-rule:evenodd;clip-rule:evenodd;fill:url(#SVGID_00000183938061616257037970000009417770666375601036_);" d="
			M519.47,575.57L389.84,265.03C246.99,373.02,149.98,538.4,133.06,726.87L519.47,575.57z"/>
		
			<linearGradient id="SVGID_00000052079830555993895260000015920910226367100546_" gradientUnits="userSpaceOnUse" x1="-424.2498" y1="485.5154" x2="5362.2056" y2="-440.3174">
			<stop  offset="0" style="stop-color:#0000C9"/>
			<stop  offset="1" style="stop-color:#003DFF"/>
		</linearGradient>
		<path style="fill-rule:evenodd;clip-rule:evenodd;fill:url(#SVGID_00000052079830555993895260000015920910226367100546_);" d="
			M837.45,451.06l59.48-23.29l125.64-49.2l197.42-77.3c-115.69-104.38-268.92-167.94-437-167.94c-61.6,0-121.2,8.55-177.7,24.5
			L837.45,451.06z"/>
		
			<linearGradient id="SVGID_00000088853124332101391770000006803802022190272676_" gradientUnits="userSpaceOnUse" x1="-308.8579" y1="1206.7146" x2="5477.5972" y2="280.8817">
			<stop  offset="0" style="stop-color:#0000C9"/>
			<stop  offset="1" style="stop-color:#003DFF"/>
		</linearGradient>
		<path style="fill-rule:evenodd;clip-rule:evenodd;fill:url(#SVGID_00000088853124332101391770000006803802022190272676_);" d="
			M749.43,1126.5l112.82-96.62l34.68,67.83l125.64,245.71l20.96,41c67.71-29.52,129.43-70.18,182.85-119.68l-203.82-319.22
			l-21.85-34.23l21.85-18.72l98.01-83.93l232.98,294.25c52.25-93.85,82.05-201.91,82.05-316.95c0-94.09-19.95-183.51-55.79-264.32
			L1022.56,793.2l-125.64,95.01l-529.84,400.68c112.92,93.48,257.84,149.68,415.89,149.68c35.66,0,70.63-2.9,104.73-8.4
			L749.43,1126.5z"/>
	</g>
</g>
</svg>
