<?xml version="1.0" encoding="utf-8"?>
<!-- Generator: Adobe Illustrator 25.4.0, SVG Export Plug-In . SVG Version: 6.00 Build 0)  -->
<svg version="1.1" xmlns="http://www.w3.org/2000/svg" xmlns:xlink="http://www.w3.org/1999/xlink" x="0px" y="0px"
	 viewBox="0 0 1568.66 1571.9" style="enable-background:new 0 0 1568.66 1571.9;" xml:space="preserve">
<style type="text/css">
	.st0{fill:#FFFFFF;}
	.st1{fill-rule:evenodd;clip-rule:evenodd;fill:#FFFFFF;}
	.st2{fill-rule:evenodd;clip-rule:evenodd;}
	.st3{fill:url(#SVGID_1_);}
	.st4{fill:url(#SVGID_00000178205476436570205810000013716798981194365319_);}
	.st5{fill:url(#SVGID_00000079444700946419452840000007358139093910228632_);}
	.st6{fill:url(#SVGID_00000130635992307615861820000015187521561479170469_);}
	.st7{fill:url(#SVGID_00000160891939780655757140000007317228820003023275_);}
	.st8{fill:url(#SVGID_00000129182777836357974120000016451272681522257056_);}
	.st9{fill-rule:evenodd;clip-rule:evenodd;fill:url(#SVGID_00000050648656437631634740000006930458441437591725_);}
	.st10{fill-rule:evenodd;clip-rule:evenodd;fill:url(#SVGID_00000075128855902143273100000007273799917393471635_);}
	.st11{fill-rule:evenodd;clip-rule:evenodd;fill:url(#SVGID_00000052792102941271997250000004262660624974424730_);}
	.st12{fill-rule:evenodd;clip-rule:evenodd;fill:url(#SVGID_00000026863883397242578340000004099671254594512556_);}
	.st13{fill-rule:evenodd;clip-rule:evenodd;fill:url(#SVGID_00000124875766959676433590000000947387260064560038_);}
	.st14{fill-rule:evenodd;clip-rule:evenodd;fill:url(#SVGID_00000139268093207686627840000015803480165306375330_);}
	.st15{fill-rule:evenodd;clip-rule:evenodd;fill:url(#SVGID_00000073713176514109301380000011911790805718263223_);}
	.st16{fill-rule:evenodd;clip-rule:evenodd;fill:url(#SVGID_00000058581985900367872410000008131837736976029608_);}
	.st17{fill-rule:evenodd;clip-rule:evenodd;fill:url(#SVGID_00000146486538644983773310000013484071801493345421_);}
	.st18{fill-rule:evenodd;clip-rule:evenodd;fill:url(#SVGID_00000101784650790318757190000006304716622049716873_);}
</style>
<g id="Layer_1">
</g>
<g id="Layer_2">
	<g>
		<path class="st2" d="M450.37,224.39l161.14,315.14l121.46-47.56L535.12,182.1C505.73,194.18,477.42,208.33,450.37,224.39z"/>
		<path class="st2" d="M937.18,577.03l70.34,88.84l15.04-9.65l316.19-212.45c-17.14-27.77-36.3-54.16-57.28-78.97l-258.91,133.04
			l-125.64,64.56L150.19,946.09c19.12,75.8,51.51,146.31,94.55,208.94l407.51-261.34l-46.18-110.64l98.59-61.35l53.28,104.2
			l133.55-85.65l-61.6-96.48l67.03-41.71L937.18,577.03z"/>
		<path class="st2" d="M519.47,575.57L389.84,265.03C246.99,373.02,149.98,538.4,133.06,726.87L519.47,575.57z"/>
		<path class="st2" d="M837.45,451.06l59.48-23.29l125.64-49.2l197.42-77.3c-115.69-104.38-268.92-167.94-437-167.94
			c-61.6,0-121.2,8.55-177.7,24.5L837.45,451.06z"/>
		<path class="st2" d="M749.43,1126.5l112.82-96.62l34.68,67.83l125.64,245.71l20.96,41c67.71-29.52,129.43-70.18,182.85-119.68
			l-203.82-319.22l-21.85-34.23l21.85-18.72l98.01-83.93l232.98,294.25c52.25-93.85,82.05-201.91,82.05-316.95
			c0-94.09-19.95-183.51-55.79-264.32L1022.56,793.2l-125.64,95.01l-529.84,400.68c112.92,93.48,257.84,149.68,415.89,149.68
			c35.66,0,70.63-2.9,104.73-8.4L749.43,1126.5z"/>
	</g>
</g>
</svg>
