<?xml version="1.0" encoding="utf-8"?>
<!-- Generator: Adobe Illustrator 25.4.0, SVG Export Plug-In . SVG Version: 6.00 Build 0)  -->
<svg version="1.1" xmlns="http://www.w3.org/2000/svg" xmlns:xlink="http://www.w3.org/1999/xlink" x="0px" y="0px"
	 viewBox="0 0 3282.15 929.51" style="enable-background:new 0 0 3282.15 929.51;" xml:space="preserve">
<style type="text/css">
	.st0{fill:#FFFFFF;}
	.st1{fill-rule:evenodd;clip-rule:evenodd;fill:#FFFFFF;}
	.st2{fill-rule:evenodd;clip-rule:evenodd;}
	.st3{fill:url(#SVGID_1_);}
	.st4{fill:url(#SVGID_00000132058751162994368260000013402600323421917328_);}
	.st5{fill:url(#SVGID_00000114050532529479437500000002707582928916878748_);}
	.st6{fill:url(#SVGID_00000088129753578888441950000006829693622773759406_);}
	.st7{fill:url(#SVGID_00000111881794205590395330000008373402601984563086_);}
	.st8{fill:url(#SVGID_00000043429651508421751880000004328169489944642722_);}
	.st9{fill-rule:evenodd;clip-rule:evenodd;fill:url(#SVGID_00000012451208166746645330000009295607360519156898_);}
	.st10{fill-rule:evenodd;clip-rule:evenodd;fill:url(#SVGID_00000158717899438965652150000017313917866506403743_);}
	.st11{fill-rule:evenodd;clip-rule:evenodd;fill:url(#SVGID_00000116233119839203382610000012259923403566879164_);}
	.st12{fill-rule:evenodd;clip-rule:evenodd;fill:url(#SVGID_00000168111267561844367450000009140538004489450680_);}
	.st13{fill-rule:evenodd;clip-rule:evenodd;fill:url(#SVGID_00000106142019502484699530000016055035927115665551_);}
	.st14{fill-rule:evenodd;clip-rule:evenodd;fill:url(#SVGID_00000060713053763747234800000013716964784873076881_);}
	.st15{fill-rule:evenodd;clip-rule:evenodd;fill:url(#SVGID_00000163765654490435303930000003544104650462575792_);}
	.st16{fill-rule:evenodd;clip-rule:evenodd;fill:url(#SVGID_00000085251339356316303330000016803138734365710234_);}
	.st17{fill-rule:evenodd;clip-rule:evenodd;fill:url(#SVGID_00000095325159087697857500000012269672121885031860_);}
	.st18{fill-rule:evenodd;clip-rule:evenodd;fill:url(#SVGID_00000088109987309222052070000011235075798336530358_);}
</style>
<g id="Layer_1">
</g>
<g id="Layer_2">
	<g>
		<g>
			<linearGradient id="SVGID_1_" gradientUnits="userSpaceOnUse" x1="-51.9374" y1="642.228" x2="2444.9033" y2="242.7335">
				<stop  offset="0" style="stop-color:#0000C9"/>
				<stop  offset="1" style="stop-color:#003DFF"/>
			</linearGradient>
			<path class="st3" d="M878.47,465.23c0-100.99,74.55-174.09,178.42-174.09c49.54,0,95.23,17.79,130.33,53.38l-39.92,38.96
				c-24.53-24.53-54.34-36.55-88.97-36.55c-66.85,0-114.94,45.69-114.94,118.31c0,72.14,47.13,117.35,117.83,117.35
				c32.7,0,57.23-10.1,76.47-25.01v-97.63h55.79V584.5c-35.11,34.63-83.68,53.86-135.14,53.86
				C953.98,638.37,878.47,565.27,878.47,465.23z"/>
			
				<linearGradient id="SVGID_00000145759715122525866980000000652610313889965736_" gradientUnits="userSpaceOnUse" x1="-42.6311" y1="700.3926" x2="2454.2097" y2="300.898">
				<stop  offset="0" style="stop-color:#0000C9"/>
				<stop  offset="1" style="stop-color:#003DFF"/>
			</linearGradient>
			<path style="fill:url(#SVGID_00000145759715122525866980000000652610313889965736_);" d="M1357.02,578.25h207.28v54.83h-268.36
				V296.43h263.55v54.83h-202.47v80.8h181.31v54.83h-181.31V578.25z"/>
			
				<linearGradient id="SVGID_00000038399743251231019530000004771399706396883329_" gradientUnits="userSpaceOnUse" x1="-35.7943" y1="743.1225" x2="2461.0466" y2="343.628">
				<stop  offset="0" style="stop-color:#0000C9"/>
				<stop  offset="1" style="stop-color:#003DFF"/>
			</linearGradient>
			<path style="fill:url(#SVGID_00000038399743251231019530000004771399706396883329_);" d="M1935.1,351.25h-200.06v98.11h176.5
				v54.34h-176.5v129.37h-62.04V296.43h262.11V351.25z"/>
			
				<linearGradient id="SVGID_00000062894729173055743780000006534787420319902643_" gradientUnits="userSpaceOnUse" x1="-26.0223" y1="804.1973" x2="2470.8186" y2="404.7027">
				<stop  offset="0" style="stop-color:#0000C9"/>
				<stop  offset="1" style="stop-color:#003DFF"/>
			</linearGradient>
			<path style="fill:url(#SVGID_00000062894729173055743780000006534787420319902643_);" d="M2326.59,296.43l-133.22,213.53v123.12
				h-62.52V508.52l-133.22-212.09h68.29l96.67,160.15l95.7-160.15H2326.59z"/>
			
				<linearGradient id="SVGID_00000173847530950477919750000007563639021564224952_" gradientUnits="userSpaceOnUse" x1="-14.3298" y1="877.2759" x2="2482.511" y2="477.7814">
				<stop  offset="0" style="stop-color:#0000C9"/>
				<stop  offset="1" style="stop-color:#003DFF"/>
			</linearGradient>
			<path style="fill:url(#SVGID_00000173847530950477919750000007563639021564224952_);" d="M2629.58,633.08l-94.74-112.54h-52.9
				v112.54h-62.04V296.43h138.99c90.41,0,144.28,40.88,144.28,112.54c0,56.75-34.15,93.78-93.78,106.77l98.59,117.35H2629.58z
				 M2481.94,351.25V466.2h75.03c53.39,0,84.16-14.43,84.16-56.27c0-40.88-30.78-58.67-83.68-58.67H2481.94z"/>
			
				<linearGradient id="SVGID_00000064316771772088928150000000759319832502489012_" gradientUnits="userSpaceOnUse" x1="-2.5472" y1="950.9171" x2="2494.2937" y2="551.4225">
				<stop  offset="0" style="stop-color:#0000C9"/>
				<stop  offset="1" style="stop-color:#003DFF"/>
			</linearGradient>
			<path style="fill:url(#SVGID_00000064316771772088928150000000759319832502489012_);" d="M3076.38,633.08l-26.93-62.04h-178.9
				l-26.93,62.04h-65.41l151.01-336.65h62.04l151.49,336.65H3076.38z M2894.1,516.69h131.77l-65.89-152.45L2894.1,516.69z"/>
		</g>
		<g>
			
				<linearGradient id="SVGID_00000133495885307015025460000009627558953669158331_" gradientUnits="userSpaceOnUse" x1="-98.7251" y1="349.8052" x2="2398.1157" y2="-49.6894">
				<stop  offset="0" style="stop-color:#0000C9"/>
				<stop  offset="1" style="stop-color:#003DFF"/>
			</linearGradient>
			<path style="fill-rule:evenodd;clip-rule:evenodd;fill:url(#SVGID_00000133495885307015025460000009627558953669158331_);" d="
				M276.32,222.44l69.53,135.98l52.41-20.52L312.89,204.2C300.21,209.41,288,215.51,276.32,222.44z"/>
			
				<linearGradient id="SVGID_00000086652720463296211720000000676739739313232814_" gradientUnits="userSpaceOnUse" x1="-69.8149" y1="530.4934" x2="2427.0259" y2="130.9989">
				<stop  offset="0" style="stop-color:#0000C9"/>
				<stop  offset="1" style="stop-color:#003DFF"/>
			</linearGradient>
			<path style="fill-rule:evenodd;clip-rule:evenodd;fill:url(#SVGID_00000086652720463296211720000000676739739313232814_);" d="
				M486.38,374.61l30.35,38.33l6.49-4.16l136.43-91.67c-7.39-11.98-15.66-23.37-24.72-34.07l-111.72,57.4l-54.21,27.86L146.8,533.86
				c8.25,32.71,22.23,63.13,40.8,90.16l175.84-112.77l-19.93-47.74l42.54-26.47L409.04,482l57.63-36.96l-26.58-41.63l28.92-18
				L486.38,374.61z"/>
			
				<linearGradient id="SVGID_00000182525995722561250120000005810511517457519002_" gradientUnits="userSpaceOnUse" x1="-92.9871" y1="385.6678" x2="2403.8538" y2="-13.8268">
				<stop  offset="0" style="stop-color:#0000C9"/>
				<stop  offset="1" style="stop-color:#003DFF"/>
			</linearGradient>
			<path style="fill-rule:evenodd;clip-rule:evenodd;fill:url(#SVGID_00000182525995722561250120000005810511517457519002_);" d="
				M306.14,373.98l-55.93-134c-61.64,46.59-103.5,117.96-110.8,199.28L306.14,373.98z"/>
			
				<linearGradient id="SVGID_00000130611779577948395170000000017888412189408694_" gradientUnits="userSpaceOnUse" x1="-101.075" y1="335.118" x2="2395.7659" y2="-64.3766">
				<stop  offset="0" style="stop-color:#0000C9"/>
				<stop  offset="1" style="stop-color:#003DFF"/>
			</linearGradient>
			<path style="fill-rule:evenodd;clip-rule:evenodd;fill:url(#SVGID_00000130611779577948395170000000017888412189408694_);" d="
				M443.34,320.25l25.67-10.05l54.21-21.23l85.19-33.36c-49.92-45.04-116.04-72.46-188.56-72.46c-26.58,0-52.3,3.69-76.68,10.57
				L443.34,320.25z"/>
			
				<linearGradient id="SVGID_00000093893606836259530060000016297764609685937552_" gradientUnits="userSpaceOnUse" x1="-51.2837" y1="646.3136" x2="2445.5571" y2="246.8191">
				<stop  offset="0" style="stop-color:#0000C9"/>
				<stop  offset="1" style="stop-color:#003DFF"/>
			</linearGradient>
			<path style="fill-rule:evenodd;clip-rule:evenodd;fill:url(#SVGID_00000093893606836259530060000016297764609685937552_);" d="
				M405.36,611.7l48.68-41.69l14.96,29.27l54.21,106.02l9.05,17.69c29.22-12.74,55.85-30.28,78.9-51.64l-87.95-137.74l-9.43-14.77
				l9.43-8.08l42.29-36.22l100.53,126.97c22.54-40.5,35.4-87.12,35.4-136.76c0-40.6-8.61-79.18-24.07-114.05L523.22,467.88
				l-54.21,41L240.39,681.77c48.73,40.34,111.26,64.58,179.46,64.58c15.39,0,30.47-1.25,45.19-3.63L405.36,611.7z"/>
		</g>
	</g>
</g>
</svg>
