<svg id="SvgjsSvg1031" width="288" height="288" xmlns="http://www.w3.org/2000/svg" version="1.1" xmlns:xlink="http://www.w3.org/1999/xlink" xmlns:svgjs="http://svgjs.com/svgjs"><defs id="SvgjsDefs1032"></defs><g id="SvgjsG1033"><svg xmlns="http://www.w3.org/2000/svg" enable-background="new 0 0 1568.66 1571.9" viewBox="0 0 1568.66 1571.9" width="288" height="288"><g id="Layer_2" fill="#980303" class="color000 svgShape"><linearGradient id="SVGID_1_" x1="-418.804" x2="5367.651" y1="519.553" y2="-406.28" gradientUnits="userSpaceOnUse"><stop offset="0" stop-color="#094cb2" class="stopColor0000c9 svgShape"></stop><stop offset="1" stop-color="#0e4aab" class="stopColor003dff svgShape"></stop></linearGradient><path fill="url(#SVGID_1_)" fill-rule="evenodd" d="M450.37,224.39l161.14,315.14l121.46-47.56			L535.12,182.1C505.73,194.18,477.42,208.33,450.37,224.39z" clip-rule="evenodd"></path><linearGradient id="SVGID_00000031902061564310955740000008391928176779587971_" x1="-351.804" x2="5434.651" y1="938.3" y2="12.467" gradientUnits="userSpaceOnUse"><stop offset="0" stop-color="#094cb2" class="stopColor0000c9 svgShape"></stop><stop offset="1" stop-color="#0e4aab" class="stopColor003dff svgShape"></stop></linearGradient><path fill="url(#SVGID_00000031902061564310955740000008391928176779587971_)" fill-rule="evenodd" d="
			M937.18,577.03l70.34,88.84l15.04-9.65l316.19-212.45c-17.14-27.77-36.3-54.16-57.28-78.97l-258.91,133.04l-125.64,64.56
			L150.19,946.09c19.12,75.8,51.51,146.31,94.55,208.94l407.51-261.34l-46.18-110.64l98.59-61.35l53.28,104.2l133.55-85.65
			l-61.6-96.48l67.03-41.71L937.18,577.03z" clip-rule="evenodd"></path><linearGradient id="SVGID_00000183938061616257037970000009417770666375601036_" x1="-405.506" x2="5380.949" y1="602.665" y2="-323.168" gradientUnits="userSpaceOnUse"><stop offset="0" stop-color="#094cb2" class="stopColor0000c9 svgShape"></stop><stop offset="1" stop-color="#0e4aab" class="stopColor003dff svgShape"></stop></linearGradient><path fill="url(#SVGID_00000183938061616257037970000009417770666375601036_)" fill-rule="evenodd" d="
			M519.47,575.57L389.84,265.03C246.99,373.02,149.98,538.4,133.06,726.87L519.47,575.57z" clip-rule="evenodd"></path><linearGradient id="SVGID_00000052079830555993895260000015920910226367100546_" x1="-424.25" x2="5362.206" y1="485.515" y2="-440.317" gradientUnits="userSpaceOnUse"><stop offset="0" stop-color="#094cb2" class="stopColor0000c9 svgShape"></stop><stop offset="1" stop-color="#0e4aab" class="stopColor003dff svgShape"></stop></linearGradient><path fill="url(#SVGID_00000052079830555993895260000015920910226367100546_)" fill-rule="evenodd" d="
			M837.45,451.06l59.48-23.29l125.64-49.2l197.42-77.3c-115.69-104.38-268.92-167.94-437-167.94c-61.6,0-121.2,8.55-177.7,24.5
			L837.45,451.06z" clip-rule="evenodd"></path><linearGradient id="SVGID_00000088853124332101391770000006803802022190272676_" x1="-308.858" x2="5477.597" y1="1206.715" y2="280.882" gradientUnits="userSpaceOnUse"><stop offset="0" stop-color="#094cb2" class="stopColor0000c9 svgShape"></stop><stop offset="1" stop-color="#0e4aab" class="stopColor003dff svgShape"></stop></linearGradient><path fill="url(#SVGID_00000088853124332101391770000006803802022190272676_)" fill-rule="evenodd" d="
			M749.43,1126.5l112.82-96.62l34.68,67.83l125.64,245.71l20.96,41c67.71-29.52,129.43-70.18,182.85-119.68l-203.82-319.22
			l-21.85-34.23l21.85-18.72l98.01-83.93l232.98,294.25c52.25-93.85,82.05-201.91,82.05-316.95c0-94.09-19.95-183.51-55.79-264.32
			L1022.56,793.2l-125.64,95.01l-529.84,400.68c112.92,93.48,257.84,149.68,415.89,149.68c35.66,0,70.63-2.9,104.73-8.4
			L749.43,1126.5z" clip-rule="evenodd"></path></g></svg></g></svg>