<?xml version="1.0" encoding="utf-8"?>
<!-- Generator: Adobe Illustrator 25.4.0, SVG Export Plug-In . SVG Version: 6.00 Build 0)  -->
<svg version="1.1" xmlns="http://www.w3.org/2000/svg" xmlns:xlink="http://www.w3.org/1999/xlink" x="0px" y="0px"
	 viewBox="0 0 1568.66 1571.9" style="enable-background:new 0 0 1568.66 1571.9;" xml:space="preserve">
<style type="text/css">
	.st0{fill:#FFFFFF;}
	.st1{fill-rule:evenodd;clip-rule:evenodd;fill:#FFFFFF;}
	.st2{fill-rule:evenodd;clip-rule:evenodd;}
	.st3{fill:url(#SVGID_1_);}
	.st4{fill:url(#SVGID_00000114774663576960398460000016911394818446721677_);}
	.st5{fill:url(#SVGID_00000034810387690676492630000010399338286688918937_);}
	.st6{fill:url(#SVGID_00000127016457655366147410000011735066575089089427_);}
	.st7{fill:url(#SVGID_00000047766138939448491900000010252500271921142957_);}
	.st8{fill:url(#SVGID_00000122001832941477821150000004942812872800598457_);}
	.st9{fill-rule:evenodd;clip-rule:evenodd;fill:url(#SVGID_00000037683613063712390440000017343539637525182638_);}
	.st10{fill-rule:evenodd;clip-rule:evenodd;fill:url(#SVGID_00000057857275566198763840000001945950074594969993_);}
	.st11{fill-rule:evenodd;clip-rule:evenodd;fill:url(#SVGID_00000180338813643972724320000011516159492925717903_);}
	.st12{fill-rule:evenodd;clip-rule:evenodd;fill:url(#SVGID_00000094596015628279636490000005538667454137008772_);}
	.st13{fill-rule:evenodd;clip-rule:evenodd;fill:url(#SVGID_00000145023974962664396380000000779026600445105330_);}
	.st14{fill-rule:evenodd;clip-rule:evenodd;fill:url(#SVGID_00000005238644625442444660000002738028302189684881_);}
	.st15{fill-rule:evenodd;clip-rule:evenodd;fill:url(#SVGID_00000078761663628202729610000013641293599338292410_);}
	.st16{fill-rule:evenodd;clip-rule:evenodd;fill:url(#SVGID_00000027569002500043020580000012500988637172591544_);}
	.st17{fill-rule:evenodd;clip-rule:evenodd;fill:url(#SVGID_00000036246998588865880270000017421847163481860775_);}
	.st18{fill-rule:evenodd;clip-rule:evenodd;fill:url(#SVGID_00000178187986446206623060000009611481456958923141_);}
</style>
<g id="Layer_1">
</g>
<g id="Layer_2">
	<g>
		<path class="st1" d="M450.37,224.39l161.14,315.14l121.46-47.56L535.12,182.1C505.73,194.18,477.42,208.33,450.37,224.39z"/>
		<path class="st1" d="M937.18,577.03l70.34,88.84l15.04-9.65l316.19-212.45c-17.14-27.77-36.3-54.16-57.28-78.97l-258.91,133.04
			l-125.64,64.56L150.19,946.09c19.12,75.8,51.51,146.31,94.55,208.94l407.51-261.34l-46.18-110.64l98.59-61.35l53.28,104.2
			l133.55-85.65l-61.6-96.48l67.03-41.71L937.18,577.03z"/>
		<path class="st1" d="M519.47,575.57L389.84,265.03C246.99,373.02,149.98,538.4,133.06,726.87L519.47,575.57z"/>
		<path class="st1" d="M837.45,451.06l59.48-23.29l125.64-49.2l197.42-77.3c-115.69-104.38-268.92-167.94-437-167.94
			c-61.6,0-121.2,8.55-177.7,24.5L837.45,451.06z"/>
		<path class="st1" d="M749.43,1126.5l112.82-96.62l34.68,67.83l125.64,245.71l20.96,41c67.71-29.52,129.43-70.18,182.85-119.68
			l-203.82-319.22l-21.85-34.23l21.85-18.72l98.01-83.93l232.98,294.25c52.25-93.85,82.05-201.91,82.05-316.95
			c0-94.09-19.95-183.51-55.79-264.32L1022.56,793.2l-125.64,95.01l-529.84,400.68c112.92,93.48,257.84,149.68,415.89,149.68
			c35.66,0,70.63-2.9,104.73-8.4L749.43,1126.5z"/>
	</g>
</g>
</svg>
