<svg id="visual" viewBox="0 0 1920 1080" width="1920" height="1080" xmlns="http://www.w3.org/2000/svg" xmlns:xlink="http://www.w3.org/1999/xlink" version="1.1"><rect x="0" y="0" width="1920" height="1080" fill="#00132f"></rect><defs><linearGradient id="grad1_0" x1="43.8%" y1="0%" x2="100%" y2="100%"><stop offset="14.444444444444446%" stop-color="#00132f" stop-opacity="1"></stop><stop offset="85.55555555555554%" stop-color="#00132f" stop-opacity="1"></stop></linearGradient></defs><defs><linearGradient id="grad2_0" x1="0%" y1="0%" x2="56.3%" y2="100%"><stop offset="14.444444444444446%" stop-color="#00132f" stop-opacity="1"></stop><stop offset="85.55555555555554%" stop-color="#00132f" stop-opacity="1"></stop></linearGradient></defs><g transform="translate(1920, 0)"><path d="M0 486C-89.8 476.1 -179.6 466.1 -243 420.9C-306.4 375.6 -343.2 295 -379.3 219C-415.4 143 -450.7 71.5 -486 0L0 0Z" fill="#ef2c7a"></path></g><g transform="translate(0, 1080)"><path d="M0 -486C52.5 -417.9 105.1 -349.8 183.5 -317.8C261.9 -285.8 366.2 -290 420.9 -243C475.6 -196 480.8 -98 486 0L0 0Z" fill="#ef2c7a"></path></g></svg>