<?xml version="1.0" encoding="utf-8"?>
<!-- Generator: Adobe Illustrator 25.4.0, SVG Export Plug-In . SVG Version: 6.00 Build 0)  -->
<svg version="1.1" xmlns="http://www.w3.org/2000/svg" xmlns:xlink="http://www.w3.org/1999/xlink" x="0px" y="0px"
	 viewBox="0 0 3282.15 929.51" style="enable-background:new 0 0 3282.15 929.51;" xml:space="preserve">
<style type="text/css">
	.st0{fill:#FFFFFF;}
	.st1{fill-rule:evenodd;clip-rule:evenodd;fill:#FFFFFF;}
	.st2{fill-rule:evenodd;clip-rule:evenodd;}
	.st3{fill:url(#SVGID_1_);}
	.st4{fill:url(#SVGID_00000152973615187420984740000003956365601564455559_);}
	.st5{fill:url(#SVGID_00000116197380026918358140000005531552880192675971_);}
	.st6{fill:url(#SVGID_00000101062117238421257320000013569676132463091881_);}
	.st7{fill:url(#SVGID_00000162352178672141300680000006997535355230655159_);}
	.st8{fill:url(#SVGID_00000158732737988149906990000016743516467253540005_);}
	.st9{fill-rule:evenodd;clip-rule:evenodd;fill:url(#SVGID_00000060722372896445761640000011481282636681465787_);}
	.st10{fill-rule:evenodd;clip-rule:evenodd;fill:url(#SVGID_00000102506616409332771430000012964927269042912930_);}
	.st11{fill-rule:evenodd;clip-rule:evenodd;fill:url(#SVGID_00000024718075530116860070000013998174914448585109_);}
	.st12{fill-rule:evenodd;clip-rule:evenodd;fill:url(#SVGID_00000115488310995185705080000012197972788389820548_);}
	.st13{fill-rule:evenodd;clip-rule:evenodd;fill:url(#SVGID_00000057138192582486417830000010807289063773066681_);}
	.st14{fill-rule:evenodd;clip-rule:evenodd;fill:url(#SVGID_00000088108083713968965660000013896098850778384298_);}
	.st15{fill-rule:evenodd;clip-rule:evenodd;fill:url(#SVGID_00000014633941487665927400000011577259686388594816_);}
	.st16{fill-rule:evenodd;clip-rule:evenodd;fill:url(#SVGID_00000089551878366566766850000001385806394347369371_);}
	.st17{fill-rule:evenodd;clip-rule:evenodd;fill:url(#SVGID_00000104697918677641636050000003661683718034021028_);}
	.st18{fill-rule:evenodd;clip-rule:evenodd;fill:url(#SVGID_00000014606898211480038120000016393133102871706541_);}
</style>
<g id="Layer_1">
</g>
<g id="Layer_2">
	<g>
		<g>
			<path class="st0" d="M878.47,465.23c0-100.99,74.55-174.09,178.42-174.09c49.54,0,95.23,17.79,130.33,53.38l-39.92,38.96
				c-24.53-24.53-54.34-36.55-88.97-36.55c-66.85,0-114.94,45.69-114.94,118.31c0,72.14,47.13,117.35,117.83,117.35
				c32.7,0,57.23-10.1,76.47-25.01v-97.63h55.79V584.5c-35.11,34.63-83.68,53.86-135.14,53.86
				C953.98,638.37,878.47,565.27,878.47,465.23z"/>
			<path class="st0" d="M1357.02,578.25h207.28v54.83h-268.36V296.43h263.55v54.83h-202.47v80.8h181.31v54.83h-181.31V578.25z"/>
			<path class="st0" d="M1935.1,351.25h-200.06v98.11h176.5v54.34h-176.5v129.37h-62.04V296.43h262.11V351.25z"/>
			<path class="st0" d="M2326.59,296.43l-133.22,213.53v123.12h-62.52V508.52l-133.22-212.09h68.29l96.67,160.15l95.7-160.15
				H2326.59z"/>
			<path class="st0" d="M2629.58,633.08l-94.74-112.54h-52.9v112.54h-62.04V296.43h138.99c90.41,0,144.28,40.88,144.28,112.54
				c0,56.75-34.15,93.78-93.78,106.77l98.59,117.35H2629.58z M2481.94,351.25V466.2h75.03c53.39,0,84.16-14.43,84.16-56.27
				c0-40.88-30.78-58.67-83.68-58.67H2481.94z"/>
			<path class="st0" d="M3076.38,633.08l-26.93-62.04h-178.9l-26.93,62.04h-65.41l151.01-336.65h62.04l151.49,336.65H3076.38z
				 M2894.1,516.69h131.77l-65.89-152.45L2894.1,516.69z"/>
		</g>
		<g>
			<path class="st1" d="M276.32,222.44l69.53,135.98l52.41-20.52L312.89,204.2C300.21,209.41,288,215.51,276.32,222.44z"/>
			<path class="st1" d="M486.38,374.61l30.35,38.33l6.49-4.16l136.43-91.67c-7.39-11.98-15.66-23.37-24.72-34.07l-111.72,57.4
				l-54.21,27.86L146.8,533.86c8.25,32.71,22.23,63.13,40.8,90.16l175.84-112.77l-19.93-47.74l42.54-26.47L409.04,482l57.63-36.96
				l-26.58-41.63l28.92-18L486.38,374.61z"/>
			<path class="st1" d="M306.14,373.98l-55.93-134c-61.64,46.59-103.5,117.96-110.8,199.28L306.14,373.98z"/>
			<path class="st1" d="M443.34,320.25l25.67-10.05l54.21-21.23l85.19-33.36c-49.92-45.04-116.04-72.46-188.56-72.46
				c-26.58,0-52.3,3.69-76.68,10.57L443.34,320.25z"/>
			<path class="st1" d="M405.36,611.7l48.68-41.69l14.96,29.27l54.21,106.02l9.05,17.69c29.22-12.74,55.85-30.28,78.9-51.64
				l-87.95-137.74l-9.43-14.77l9.43-8.08l42.29-36.22l100.53,126.97c22.54-40.5,35.4-87.12,35.4-136.76
				c0-40.6-8.61-79.18-24.07-114.05L523.22,467.88l-54.21,41L240.39,681.77c48.73,40.34,111.26,64.58,179.46,64.58
				c15.39,0,30.47-1.25,45.19-3.63L405.36,611.7z"/>
		</g>
	</g>
</g>
</svg>
